<?xml version="1.0" encoding="utf-8"?>
<!-- Generator: Adobe Illustrator 25.4.1, SVG Export Plug-In . SVG Version: 6.00 Build 0)  -->
<svg version="1.1" id="Layer_1" xmlns="http://www.w3.org/2000/svg" xmlns:xlink="http://www.w3.org/1999/xlink" x="0px" y="0px"
	 viewBox="0 0 80 80" style="enable-background:new 0 0 80 80;" xml:space="preserve">
<style type="text/css">
	.st0{fill:#69C8D0;}
	.st1{fill:#F50057;}
	.st2{fill:#FAFCFC;}
</style>
<path class="st0" d="M1.19,0h72.83c0.66,0,1.19,0.53,1.19,1.18v12.76h-43.5H21.23H10.4H0V1.18C0,0.53,0.53,0,1.19,0L1.19,0z
	 M75.22,16.29v57.83c0,0.65-0.54,1.18-1.19,1.18H1.19C0.53,75.29,0,74.77,0,74.12V16.29h9.21v39.14h0c0,0.31,0.13,0.63,0.38,0.86
	c0.48,0.44,1.24,0.42,1.69-0.05l0,0l9.79-10.29l9.73,10.23c0.22,0.26,0.55,0.43,0.93,0.43c0.66,0,1.19-0.53,1.19-1.18V16.29H75.22
	L75.22,16.29z M11.6,16.29v36.16l8.54-8.97c0.03-0.04,0.07-0.08,0.11-0.12c0.48-0.44,1.24-0.42,1.69,0.05l0,0l8.59,9.03V16.29h-9.29
	H11.6z"/>
<path class="st1" d="M37.32,18.64H80V5.88c0-0.65-0.53-1.18-1.19-1.18H5.97c-0.66,0-1.19,0.53-1.19,1.18v12.76h4.8v2.35h-4.8v10.73
	v33.22v13.88c0,0.65,0.53,1.18,1.19,1.18h72.83c0.66,0,1.19-0.53,1.19-1.18V20.99H37.69v10.73h-0.38V18.64z M30.89,18.64v2.35h-4.88
	h-9.63v10.73h-0.37V18.64h10.01H30.89z"/>
<g>
	<path class="st2" d="M4.39,75.65V20.64H9.6v37.14c0,0.88,0.37,1.73,1.02,2.33c0.59,0.55,1.36,0.85,2.17,0.85
		c0.88,0,1.72-0.36,2.32-1l1.34-1.41l7-7.36l8.25,8.67c0.61,0.7,1.48,1.09,2.41,1.09c1.76,0,3.19-1.42,3.19-3.18V20.64h38.31v55.01
		H4.39z M25.77,44.39c-0.6-0.63-1.45-1-2.32-1c-0.81,0-1.58,0.3-2.17,0.85c-0.09,0.08-0.17,0.16-0.24,0.25l-5.05,5.31V20.64h14.93
		V49.8L25.77,44.39z M4.39,14.29V4.35h71.22v9.93H4.39z"/>
</g>
</svg>
