<?xml version="1.0" encoding="utf-8"?>
<!-- Generator: Adobe Illustrator 25.4.1, SVG Export Plug-In . SVG Version: 6.00 Build 0)  -->
<svg version="1.1" id="Layer_1" xmlns="http://www.w3.org/2000/svg" xmlns:xlink="http://www.w3.org/1999/xlink" x="0px" y="0px"
	 viewBox="0 0 42.2 32" style="enable-background:new 0 0 42.2 32;" xml:space="preserve">
<style type="text/css">
	.st0{fill:#8C8C8C;}
	.st1{fill:#C6C6C6;}
</style>
<path class="st0" d="M34,4H18l-4-4H4C1.8,0,0,1.8,0,4v24c0,2.2,1.8,4,4,4h31c1.7,0,3-1.3,3-3V8C38,5.8,36.2,4,34,4z"/>
<path class="st1" d="M38.2,10H11.3c-1.9,0-3.6,1.4-3.9,3.3L4,32h31.7c1.9,0,3.6-1.4,3.9-3.3l2.5-14C42.6,12.3,40.7,10,38.2,10z"/>
</svg>
